<svg xmlns="http://www.w3.org/2000/svg" viewBox="0 0 64 64">
  <defs><linearGradient id="felt" x2="1" y2="1"><stop stop-color="#265746"/><stop offset="1" stop-color="#102d25"/></linearGradient></defs>
  <rect width="64" height="64" rx="15" fill="url(#felt)"/>
  <rect x="3" y="3" width="58" height="58" rx="12" fill="none" stroke="#ead6a7" stroke-opacity=".45"/>
  <g transform="rotate(-15 24 31)">
    <rect x="12" y="12" width="25" height="37" rx="4" fill="#ead6a7"/>
    <rect x="15" y="15" width="19" height="31" rx="2" fill="#284f41"/>
    <path d="m24.5 23 7 7-7 7-7-7Z" fill="none" stroke="#ead6a7" stroke-width="1.8"/>
  </g>
  <g transform="rotate(12 40 34)">
    <rect x="27" y="15" width="26" height="38" rx="4" fill="#000" opacity=".18" transform="translate(1 2)"/>
    <rect x="27" y="15" width="26" height="38" rx="4" fill="#fff9eb"/>
    <path d="M40 25c-3.1 4.5-8 6.9-8 10.4 0 4.2 5 5.6 7.1 2.5-.2 2.2-1.1 3.8-2.6 5.1h7c-1.5-1.3-2.4-2.9-2.6-5.1 2.1 3.1 7.1 1.7 7.1-2.5 0-3.5-4.9-5.9-8-10.4Z" fill="#1b3027"/>
    <circle cx="32" cy="21" r="1.4" fill="#bf594e"/>
    <circle cx="48" cy="47" r="1.4" fill="#bf594e"/>
  </g>
</svg>
